<svg viewBox="0 0 758 664" width="80" height="70" xmlns="http://www.w3.org/2000/svg">
    <path d="M755.738,663.193c-129.533,0.145 -257.284,0.009 -385.034,0.359c-12.827,0.035 -20.846,-2.429 -27.951,-15.079c-35.863,-63.846 -73.206,-126.861 -111.328,-192.4c-20.702,36.356 -40.542,71.198 -62.768,110.231c23.943,0 45.009,1.404 65.786,-0.445c16.583,-1.475 25.254,5.209 32.475,18.824c13.498,25.452 28.128,50.303 43.2,77.022l-310.117,0c76.728,-134.946 151.986,-267.306 229.542,-403.71c51.262,88.577 100.454,173.577 151.704,262.134c50.181,-88.12 98.541,-173.043 148.959,-261.579c21.61,36.737 41.629,70.212 61.112,103.996c55.269,95.837 110.369,191.771 165.246,287.832c1.898,3.322 0.707,8.408 -0.826,12.814m-200.176,-162.74c-8.091,-13.756 -16.182,-27.512 -25.478,-43.318c-21.453,37.513 -41.006,71.704 -62.045,108.494l124.875,0c-12.601,-22.313 -24.028,-42.547 -37.352,-65.176Z" fill="#c8795a"/>
    <path d="M342.923,262.53c-11.4,19.562 -21.988,37.812 -34.67,59.668c-19.121,-33.274 -36.602,-63.358 -53.554,-93.737c-1.601,-2.868 -1.214,-8.348 0.49,-11.339c40.63,-71.286 81.567,-142.398 124.505,-217.122c22.562,38.326 42.829,72.562 62.904,106.91c19.855,33.97 39.902,67.841 58.901,102.286c3.36,6.091 5.196,16.474 2.282,21.997c-15.662,29.684 -33.049,58.458 -51.801,90.945c-24.209,-41.479 -47.13,-80.752 -71.863,-123.129c-13.197,22.564 -24.79,42.386 -37.194,63.52Z" fill="#c8795a"/>
</svg>
